<svg width="20" height="20" viewBox="0 0 20 20" fill="none" xmlns="http://www.w3.org/2000/svg">
<path fill-rule="evenodd" clip-rule="evenodd" d="M10 20C15.5225 20 20 15.5228 20 10C20 4.47717 15.5225 0 10 0C4.47754 0 0 4.47717 0 10C0 15.5228 4.47754 20 10 20ZM12.2959 9.59302L10.4072 7.70435L6 12.1113V14H7.88867L12.2959 9.59302ZM11.9805 6.13037L11.0361 7.07477L12.9248 8.96344L13.8691 8.0191C14.0439 7.84528 14.0439 7.56335 13.8691 7.38953L12.6104 6.13037C12.4365 5.95654 12.1543 5.95654 11.9805 6.13037Z" fill="#218838"/>
</svg>
