<svg width="80" height="80" viewBox="0 0 80 80" fill="none" xmlns="http://www.w3.org/2000/svg">
<g clip-path="url(#clip0_481_2)">
<path d="M70.0003 50V60H80.0003V66.6667H70.0003V76.6667H63.3337V66.6667H53.3337V60H63.3337V50H70.0003ZM70.0277 10C71.8537 10 73.3337 11.4832 73.3337 13.3113V43.3333H66.667V16.6667H13.3337V63.33L46.667 30L56.667 40V49.43L46.667 39.428L22.757 63.3333H46.667V70H9.97299C8.14716 70 6.66699 68.517 6.66699 66.6887V13.3113C6.66699 11.4825 8.18469 10 9.97299 10H70.0277ZM26.667 23.3333C30.3489 23.3333 33.3337 26.3181 33.3337 30C33.3337 33.682 30.3489 36.6667 26.667 36.6667C22.9851 36.6667 20.0003 33.682 20.0003 30C20.0003 26.3181 22.9851 23.3333 26.667 23.3333Z" fill="#218838"/>
</g>
<defs>
<clipPath id="clip0_481_2">
<rect width="80" height="80" fill="white"/>
</clipPath>
</defs>
</svg>
