<svg width="54" height="61" viewBox="0 0 54 61" fill="none" xmlns="http://www.w3.org/2000/svg">
<g clip-path="url(#clip0_106_260)">
<path d="M43.0355 59.3826C41.1278 59.3826 39.3322 58.8298 37.7688 57.8576C37.7131 57.8709 37.6549 57.8776 37.5958 57.8776H0.84375C0.377156 57.8776 0 57.4506 0 56.9245C0 44.2098 7.64353 33.2908 18.587 30.3704C18.873 30.2941 19.1708 30.3904 19.3776 30.6239L24.7666 36.7125L29.9067 30.906C30.1227 30.6611 30.4374 30.5686 30.7327 30.663C33.7601 31.6285 36.5555 33.2393 39.0521 35.4553C40.2874 34.9092 41.6315 34.6089 43.0363 34.6089C49.0809 34.6099 54 40.1657 54 46.9958C54 53.8258 49.0809 59.3826 43.0355 59.3826ZM35.6518 40.6565C34.4638 42.4179 33.7576 44.6148 33.7576 46.9948C33.7576 52.7736 37.9198 57.4754 43.0355 57.4754C48.1503 57.4763 52.3125 52.7746 52.3125 46.9958C52.3125 41.217 48.1503 36.5161 43.0355 36.5161C41.8559 36.5161 40.7261 36.7659 39.6866 37.2224C39.5989 37.3549 39.4791 37.4607 39.339 37.5265C37.8608 38.2213 36.6061 39.3088 35.6518 40.6565ZM1.70353 55.9723H35.1658C33.1121 53.6762 31.9376 50.5538 31.9376 47.2026C31.9376 44.2994 32.8261 41.5715 34.3693 39.4156C35.1937 38.2156 36.2078 37.1919 37.3621 36.3999C35.3405 34.7319 33.1222 33.4766 30.7454 32.655L25.3631 38.736C25.2045 38.9152 24.991 39.0152 24.7666 39.0152C24.5422 39.0152 24.3278 38.9152 24.1701 38.736L18.5212 32.3529C8.85769 35.1665 2.06719 44.7321 1.70353 55.9723ZM41.4804 51.6013C41.256 51.6013 41.0417 51.5012 40.8839 51.322L37.5266 47.5286C37.1967 47.1559 37.1967 46.5526 37.5266 46.1808C37.8565 45.8082 38.3898 45.8082 38.7197 46.1808L41.4804 49.3004L47.3504 42.6695C47.6803 42.2968 48.2136 42.2968 48.5435 42.6695C48.8734 43.0422 48.8734 43.6446 48.5435 44.0172L42.077 51.322C41.9192 51.5012 41.7049 51.6013 41.4804 51.6013ZM24.1599 27.39C17.8192 27.39 12.6605 21.5626 12.6605 14.3998C12.6605 7.2371 17.8192 1.41064 24.1599 1.41064C30.5007 1.41064 35.6586 7.2371 35.6586 14.3998C35.6586 21.5635 30.4999 27.39 24.1599 27.39ZM24.1599 3.31689C18.7498 3.31689 14.348 8.28839 14.348 14.3998C14.348 20.5113 18.7498 25.4837 24.1599 25.4837C29.5701 25.4837 33.9711 20.5113 33.9711 14.3998C33.9711 8.28935 29.5701 3.31689 24.1599 3.31689Z" fill="#056B37"/>
</g>
<defs>
<clipPath id="clip0_106_260">
<rect width="54" height="61" fill="white"/>
</clipPath>
</defs>
</svg>
