<svg width="30" height="28" viewBox="0 0 30 28" fill="none" xmlns="http://www.w3.org/2000/svg">
<path d="M15.0012 2.29275C18.5247 -0.869983 23.9695 -0.764985 27.3634 2.63599C30.7574 6.03697 30.8739 11.4553 27.7174 14.9892L14.9996 27.727L2.28202 14.9892C-0.874411 11.4553 -0.756424 6.0284 2.63599 2.63599C6.03224 -0.76026 11.4676 -0.874678 15.0012 2.29275ZM25.24 4.75506C22.9914 2.50186 19.361 2.41047 17.0052 4.52522L15.0026 6.32274L12.9989 4.52663C10.6363 2.40891 7.01246 2.50207 4.75726 4.75727C2.5227 6.99184 2.41051 10.5708 4.46981 12.9346L14.9996 23.481L25.5297 12.9346C27.5897 10.5699 27.478 6.99775 25.24 4.75506Z" fill="#FF1313"/>
</svg>
