<svg width="60" height="60" viewBox="0 0 60 60" fill="none" xmlns="http://www.w3.org/2000/svg">
<g clip-path="url(#clip0_500_26)">
<path d="M56.2686 5.36816H3.73137C1.67391 5.36816 0 7.04195 0 9.09941V13.4907C0 15.5481 1.67391 17.222 3.73137 17.222H5.47828L24.7623 36.5061V53.3876C24.7623 53.8907 25.0654 54.3442 25.5301 54.5368C25.684 54.6004 25.8456 54.6314 26.0058 54.6314C26.3296 54.6314 26.6477 54.5051 26.8856 54.2671L34.9199 46.2327C35.1531 45.9994 35.2842 45.6831 35.2842 45.3532V36.5058L54.5679 17.222H56.2688C58.3262 17.222 60.0001 15.5481 60.0001 13.4907V9.09941C60 7.04195 58.3261 5.36816 56.2686 5.36816ZM33.1603 35.1116C32.9147 35.3573 32.7938 35.68 32.7966 36.0019V44.8383L27.2498 50.385V35.9946C27.2507 35.6751 27.1295 35.3554 26.8857 35.1115L8.99625 17.222H51.0498L33.1603 35.1116ZM57.5125 13.4907C57.5125 14.1764 56.9545 14.7345 56.2686 14.7345H3.73137C3.04559 14.7345 2.48754 14.1766 2.48754 13.4907V9.09941C2.48754 8.41363 3.04547 7.85559 3.73137 7.85559H56.2688C56.9545 7.85559 57.5126 8.41352 57.5126 9.09941L57.5125 13.4907Z" fill="#218838"/>
</g>
<defs>
<clipPath id="clip0_500_26">
<rect width="60" height="60" fill="white"/>
</clipPath>
</defs>
</svg>
